<svg class="dark:invert" width="188" height="42" viewBox="0 0 188 42" fill="none" xmlns="http://www.w3.org/2000/svg"><path d="M1.51505 13.4766C2.64249 12.3365 4.4045 14.4999 3.36014 15.7166C2.67784 16.5114 1.74318 17.1487 0.556437 17.6284C0.514395 17.6454 0.468262 17.6145 0.468262 17.5691C0.468262 17.5465 0.480326 17.5255 0.49966 17.5138C1.50468 16.9064 2.19692 16.272 2.57639 15.6128C2.72555 15.3536 2.25965 15.0942 1.96441 15.1414C1.52259 15.212 0.899615 14.4279 1.11116 14.0336C1.23015 13.8118 1.36475 13.6261 1.51505 13.4766ZM67.9861 19.757C67.9861 21.0654 67.7244 22.1978 67.201 23.1582C66.6776 24.2913 65.8926 24.8595 64.8458 24.8595C64.7525 24.8595 64.6623 24.8587 64.5752 24.8571C63.9094 24.8448 63.2756 25.3714 63.2756 26.0374C63.2756 27.7812 63.0567 28.8707 62.6213 29.3084C59.1313 33.3193 55.8601 35.3271 52.8077 35.3271C51.4992 35.3271 50.4953 34.7157 49.7982 33.495C49.1868 32.534 48.8822 31.4441 48.8822 30.224C48.8822 30.0635 48.8853 29.9 48.8914 29.7334C48.9724 27.5274 46.6479 26.0455 45.0876 27.6072C42.3827 30.224 40.4199 32.0561 39.1994 33.1025C36.9299 34.8466 35.098 35.7193 33.7038 35.7193C32.657 35.7193 31.7411 35.2165 30.956 34.2146C30.1709 33.2111 29.7783 32.0554 29.7783 30.747C29.7783 29.3119 30.2154 27.5119 31.0895 25.35C31.1765 25.1349 30.9263 24.8592 30.6943 24.8592C30.6024 24.8592 30.5126 24.8581 30.4247 24.8561C29.7469 24.8404 29.1241 25.359 29.1241 26.0371C29.1241 27.7808 28.9481 28.8272 28.6007 29.1772C24.4993 33.1885 21.1852 35.1959 18.6562 35.1959C17.3477 35.1959 16.3438 34.6722 15.6467 33.6252C14.9476 32.5791 14.5999 31.3136 14.5999 29.8308C14.5999 29.3074 14.8165 28.1505 15.2542 26.3635C15.6896 24.5743 15.9084 23.0271 15.9084 21.7186C15.9084 19.8386 14.2955 18.4455 12.9628 17.1195C12.767 16.9247 12.5712 16.7132 12.3755 16.485C11.3287 15.2626 10.6296 14.6529 10.2819 14.6529C9.84454 14.6529 9.14712 15.3935 8.18833 16.8775C8.18091 16.8895 8.1735 16.9016 8.1661 16.9136C7.04328 18.7367 8.01289 21.1289 8.7638 23.134C9.11814 24.0802 9.31615 25.2168 9.35769 26.5439C9.36699 26.8408 9.12514 27.0825 8.82807 27.0825C8.75139 27.0825 8.67556 27.0661 8.60586 27.0342C7.68361 26.6112 6.80266 26.149 5.9639 25.6449C4.75794 24.8006 3.00864 23.623 2.21265 24.8613C1.83472 25.4493 1.6459 26.1031 1.6459 26.8228C1.6459 26.9964 2.49641 29.0019 4.19745 32.8411C5.8641 36.6005 6.71427 39.6072 6.74795 41.8615C6.7491 41.9383 6.68673 42 6.60993 42C6.53986 42 6.48095 41.9481 6.47041 41.8789C6.25407 40.457 5.25793 37.9237 3.47778 34.2797C1.8196 30.7905 0.991656 28.2617 0.991656 26.6916C0.991656 25.2926 1.5052 23.9604 2.53284 22.6951C3.92559 20.9803 5.39228 19.2402 6.59254 17.3856C6.90689 16.8998 7.26437 16.3819 7.66493 15.8318C9.23512 13.5623 10.4988 12.4299 11.4595 12.4299C11.7218 12.4299 12.2582 12.8764 13.0674 13.7693C13.2292 13.9479 13.684 13.7177 13.684 13.4766C13.684 12.3419 14.0765 11.3832 14.8616 10.5981C15.6467 9.81308 16.6055 9.42023 17.7403 9.42023C18.6114 9.42023 20.3124 9.83369 22.8434 10.6636C24.3828 11.1673 25.8095 11.5184 27.1232 11.716C28.1692 11.8733 28.8243 13.0605 28.28 13.9675C28.069 14.3191 27.7091 14.5513 27.3114 14.6515C26.0851 14.9605 24.3341 15.7028 22.0583 16.8785C19.703 18.0986 17.7403 18.7103 16.1701 18.7103C15.915 18.7103 15.7366 18.9632 15.8107 19.2073C16.1372 20.2841 16.3009 21.4268 16.3009 22.6355C16.3009 23.7683 16.1475 25.0338 15.843 26.4299C15.5361 27.825 15.385 28.6094 15.385 28.7854C15.385 31.5759 16.5175 32.972 18.7871 32.972C20.4433 32.972 22.3628 32.0993 24.5444 30.3551C25.1172 29.889 25.6755 29.4157 26.2193 28.9351C27.7004 27.6264 28.3524 25.6882 27.4231 23.9439C27.1364 23.3003 26.8209 22.6567 26.4766 22.0133C26.3326 21.7441 26.3131 21.4247 26.4294 21.1424C26.7382 20.3926 27.7619 20.3005 28.2214 20.9687C28.4836 21.35 28.6972 21.6438 28.8624 21.8505C29.4718 22.4599 30.1261 22.767 30.8251 22.767C32.4054 22.767 32.9523 20.8629 32.8136 19.2888C32.7731 18.8284 32.7208 18.3739 32.657 17.9256L30.4326 4.05673C30.363 3.3679 30.2398 2.81469 30.0619 2.39709C29.9776 2.19924 29.9511 1.97677 30.0234 1.77424C30.2324 1.18911 31.0349 1.12622 31.3324 1.67166L32.8828 4.51359C32.9064 4.5568 32.9187 4.60523 32.9187 4.65445C32.9187 4.91648 32.6019 5.0477 32.4166 4.86243L32.0863 4.53208C31.9164 4.36227 31.6272 4.43314 31.7164 4.6561C31.7304 4.6911 31.7439 4.72961 31.7494 4.7669L33.7038 17.9252C33.7895 18.2729 33.8347 18.8846 33.8347 19.7573C33.8347 20.4037 33.792 20.9889 33.7067 21.5128C33.3112 23.9427 30.9772 25.798 30.5639 28.2249C30.4763 28.7388 30.4326 29.2309 30.4326 29.7013C30.4326 30.4863 30.7371 31.2265 31.3485 31.9262C32.0456 32.7109 32.8739 33.1038 33.8347 33.1038C35.4048 33.1038 37.4104 31.9262 39.8537 29.5711C42.0333 27.5633 44.2149 25.5153 46.3961 23.4215C47.3448 22.6213 48.2799 21.8933 49.2009 21.2371C50.0219 20.6521 50.0237 19.1244 49.2748 18.4496C48.052 17.4886 47.4429 16.3986 47.4429 15.1786C47.4429 13.1711 48.5325 12.1692 50.7141 12.1692C54.2136 12.1692 57.956 12.686 61.9435 13.7224C63.1407 14.0336 63.6495 15.4286 62.9753 16.4658C62.7461 16.8184 62.4043 17.0812 62.0083 17.2227C60.7399 17.6758 58.8899 18.4091 56.4589 19.4238C55.2268 19.938 54.4126 20.8445 54.7875 22.1258C55.1729 23.4426 54.1761 25.56 52.9738 24.8989C52.3397 24.5502 52.0226 24.0139 52.0226 23.2907C52.0226 23.115 52.0655 22.8102 52.1535 22.3748C52.2272 22.0001 51.8422 21.7764 51.5232 21.9865C51.3534 22.0984 51.1667 22.2188 50.9632 22.3479C50.8028 22.4497 50.6827 22.6048 50.6268 22.7864C49.812 25.4367 49.4056 27.437 49.4056 28.7857C49.4056 31.5762 50.5833 32.9723 52.9385 32.9723C54.9788 32.9723 57.4743 31.6378 60.4238 28.9698C61.8617 27.6691 62.3932 25.7019 61.5746 23.9443C61.2011 23.3475 60.8604 22.7206 60.5523 22.0615C60.4501 21.8428 60.4392 21.593 60.5156 21.364C60.7775 20.5784 61.8402 20.4645 62.3441 21.1216C62.5577 21.4 62.7483 21.6152 62.9163 21.7673C62.9797 21.8246 63.0413 21.8838 63.0996 21.9463C63.6082 22.4921 64.2338 22.767 64.9766 22.767C66.5472 22.767 67.0294 20.8564 66.8525 19.2957C66.8 18.833 66.7418 18.3762 66.6776 17.9256L64.5841 4.18724C64.4393 3.39864 64.2961 2.78686 64.1532 2.35136C64.0982 2.18384 64.0934 2.00253 64.1527 1.83648C64.3661 1.23881 65.1899 1.18405 65.4806 1.74822L66.909 4.52088C66.9289 4.55958 66.9393 4.60248 66.9393 4.64601C66.9393 4.89728 66.6288 5.01534 66.4619 4.82752L66.3006 4.64611C66.1189 4.44163 65.7697 4.54176 65.8719 4.79553C65.8861 4.83093 65.8954 4.86036 65.9011 4.89809L67.8553 17.9252C67.9413 18.2726 67.9861 18.884 67.9861 19.757ZM9.49681 8.11215C9.49681 9.59425 9.01627 10.3368 8.05748 10.3368C7.18439 10.3368 6.74899 9.85594 6.74899 8.89752C6.74899 8.29087 6.87784 7.55763 7.13553 6.69334C7.1395 6.68001 7.14477 6.66676 7.15099 6.65432C7.25793 6.44024 7.35381 6.24463 7.43863 6.06748C7.52118 5.89508 8.11661 6.01512 8.07803 6.20233C8.06225 6.27888 8.10765 6.30744 8.17533 6.34654C9.05565 6.85505 9.49681 7.44426 9.49681 8.11215ZM8.1129 9.14784C8.75526 9.07067 8.84445 8.26295 8.26312 7.97898C7.86499 7.7845 7.30086 7.88023 7.06156 8.25314C7.02762 8.30602 7.01069 8.34626 7.01069 8.37383C7.01069 8.8972 7.31524 9.15888 7.92663 9.15888C7.98962 9.15888 8.05171 9.1552 8.1129 9.14784ZM11.6826 29.4783C12.2504 29.8776 12.3593 30.6608 11.9864 31.2464C11.8149 31.5158 11.5567 31.7215 11.2484 31.805C10.9782 31.8782 10.6973 31.941 10.4063 31.9934C10.1503 32.0394 9.89487 32.0961 9.65628 32.1995C9.48726 32.2727 9.33822 32.3478 9.20912 32.4248C8.59805 32.7891 8.67293 33.5818 8.82951 34.2758C9.0997 35.4733 9.23512 36.3469 9.23512 36.8969C9.23512 37.3995 8.89043 37.4044 8.79816 36.9104C8.73532 36.5739 8.66287 36.2204 8.58087 35.8498C8.23151 34.2791 8.05748 33.2758 8.05748 32.8405C8.05748 32.0557 8.33946 31.5321 8.908 31.2704C9.19185 31.1389 9.47061 31.0184 9.74398 30.9091C10.0779 30.7755 10.1416 30.3043 9.78797 30.2389C9.78366 30.2381 9.77936 30.2374 9.77506 30.2366C9.6807 30.2205 9.58738 30.2572 9.51383 30.3185L9.27739 30.5155C9.10471 30.6594 8.84257 30.5366 8.84257 30.3119C8.84257 30.2546 8.8612 30.1989 8.89519 30.1528C9.13345 29.8297 9.33276 29.5262 9.49681 29.2423C9.67052 28.9355 9.88936 28.7847 10.1511 28.7847C10.5145 28.7849 11.0247 29.0156 11.6826 29.4783ZM12.6372 23.1589C13.2153 23.4479 13.4464 24.1572 13.1573 24.7352C12.8697 25.3101 12.173 25.5568 11.5913 25.2832L11.3373 25.1637C10.8216 24.9212 10.5907 24.3137 10.8152 23.7899C11.0316 23.2851 10.8255 22.6986 10.3409 22.44L10.201 22.3654C9.65586 22.0746 9.42632 21.4133 9.67404 20.8473C9.93705 20.2463 10.6388 19.9741 11.2383 20.2405L11.5495 20.3788C12.0707 20.6105 12.2931 21.2304 12.038 21.7406C11.7908 22.2348 11.9911 22.8359 12.4854 23.083L12.6372 23.1589ZM21.3435 15.1149C22.2317 14.7174 22.0811 12.9476 21.1423 12.6913C19.5722 12.1682 18.3494 11.9065 17.4786 11.9065C15.4707 11.9065 14.4691 12.6468 14.4691 14.1308C14.4691 14.5031 14.5501 14.8762 14.7129 15.2497C14.9322 15.7524 15.2957 16.2225 15.8169 16.3931C16.0065 16.4551 16.2115 16.4863 16.4318 16.4863C17.6523 16.4863 19.0488 16.1366 20.6189 15.4396C20.8718 15.3261 21.1133 15.2179 21.3435 15.1149ZM24.5647 25.4822C24.8063 25.0958 25.1785 25.3199 24.9456 25.7116C23.8313 27.5858 22.5196 28.5234 21.0115 28.5234C19.5273 28.5234 18.7871 27.8243 18.7871 26.4299C18.7871 25.4975 19.4345 24.5366 20.7306 23.5462C21.1676 23.2123 21.169 22.5047 20.6189 22.5047C20.3032 22.5047 19.9883 22.6177 19.6738 22.8451C19.5303 22.9488 19.3105 22.8553 19.3105 22.6784C19.3105 22.6501 19.3165 22.6219 19.3284 22.5963C19.7626 21.6615 20.368 21.1963 21.1423 21.1963C21.6325 21.1963 22.0859 21.2206 22.5027 21.2695C23.3673 21.371 23.5655 22.3772 22.9236 22.9652C22.7848 23.0924 22.6171 23.1821 22.441 23.2485C21.9025 23.4514 21.3165 23.8143 20.6844 24.3368C19.9421 24.9458 19.5722 25.4692 19.5722 25.9069C19.5722 26.6919 20.2693 27.0844 21.6657 27.0844C22.6163 27.0844 23.5665 26.5704 24.5186 25.5426C24.5357 25.5242 24.5514 25.5035 24.5647 25.4822ZM28.339 5.75701C28.339 6.80341 27.9893 7.3271 27.2922 7.3271C26.7306 7.3271 26.0352 7.48322 25.536 7.74033C25.3937 7.8136 25.2376 7.85014 25.0678 7.85014C24.4564 7.85014 24.1519 7.45762 24.1519 6.67257C24.1519 6.30126 24.1519 5.93027 24.1519 5.55926C24.1519 5.39069 23.9546 5.31263 23.847 5.44239C23.8316 5.46099 23.816 5.48002 23.8001 5.49947C23.7004 5.62188 23.4976 5.55335 23.4976 5.39544C23.4976 5.37456 23.5015 5.35396 23.5095 5.33471C23.5219 5.3054 23.5353 5.27552 23.5499 5.24505C23.8311 4.65924 24.6232 5.0431 24.7331 5.68354C24.8163 6.16822 25.015 6.41056 25.3295 6.41056C25.7649 6.41056 25.9837 6.1057 25.9837 5.49435C25.9837 5.24849 25.9061 4.77192 25.7526 4.06383C25.733 3.97352 25.7446 3.87916 25.786 3.79653C25.9283 3.51234 26.3087 3.50985 26.4005 3.81411C26.5084 4.17181 26.5875 4.60138 26.638 5.1028C26.638 5.71416 26.8549 6.01869 27.2922 6.01869C27.4591 6.01869 27.5728 5.93046 27.6333 5.75307C27.7176 5.50554 27.6551 5.23584 27.5963 4.98102L27.3266 3.81235C27.3045 3.71668 27.3193 3.61621 27.368 3.53096C27.5376 3.23416 27.9746 3.28525 28.0546 3.61759C28.2437 4.40232 28.339 5.11576 28.339 5.75701ZM35.7231 28.2617C35.7632 28.2617 35.7949 28.2961 35.7915 28.3361C35.6913 29.5067 35.2579 30.0938 34.4889 30.0938C33.7038 30.0938 33.3113 29.7009 33.3113 28.9159C33.3113 28.5272 33.3828 28.1182 33.5259 27.6887C33.6874 27.2042 34.2272 27.4893 34.2272 28C34.2272 28.6087 34.4438 28.9159 34.8814 28.9159C35.298 28.9159 35.5556 28.7156 35.6541 28.317C35.662 28.285 35.6902 28.2617 35.7231 28.2617ZM38.4144 20.6729C38.4144 22.4471 38.209 23.8115 37.8003 24.7685C37.7764 24.8243 37.7211 24.8598 37.6603 24.8598C37.5721 24.8598 37.5017 24.7862 37.5052 24.6981C37.5792 22.8275 37.4911 20.8759 37.2367 18.8414L34.8814 4.0564C34.8114 3.36305 34.6871 2.80711 34.5073 2.38856C34.4246 2.19615 34.3988 1.97952 34.4693 1.7823C34.6754 1.20507 35.4711 1.15219 35.7518 1.69706L37.2064 4.52055C37.2263 4.55925 37.2367 4.60215 37.2367 4.64569C37.2367 4.89695 36.9261 5.01501 36.7592 4.8272L36.5164 4.55391C36.36 4.37798 36.0779 4.44085 36.1665 4.65891C36.1799 4.69183 36.1926 4.72819 36.1979 4.76333L38.2835 18.7103C38.3692 19.1457 38.4144 19.7999 38.4144 20.6729ZM44.3025 4.31776C44.3025 4.46635 44.2789 4.62287 44.2315 4.78718C44.1218 5.16799 43.6521 5.10313 43.2557 5.10313C42.8184 5.10313 42.4707 5.71449 42.209 6.93491C42.1537 7.18145 42.1029 7.43648 42.0565 7.70011C41.9782 8.14512 41.2545 8.25273 41.0521 7.84875C41.0445 7.83362 41.0369 7.81843 41.0292 7.8032C40.8582 7.46324 40.1034 7.45827 39.7228 7.45827C39.0235 7.45827 38.676 7.06607 38.676 6.2807C38.676 5.32164 38.9809 4.84145 39.592 4.84145C40.5373 4.84145 42.205 4.92993 42.5684 4.05729C42.8956 3.27165 43.2556 2.87883 43.6483 2.87883C44.0837 2.8785 44.3025 3.35902 44.3025 4.31776ZM41.293 12.2991C42.4265 11.1529 44.2159 13.33 43.1941 14.5767C42.5262 15.3917 41.6066 16.0208 40.4352 16.4642C40.4001 16.4775 40.36 16.4689 40.3334 16.4423C40.2891 16.3981 40.2984 16.3239 40.3518 16.2911C41.317 15.6974 41.9846 15.0779 42.3546 14.4347C42.5036 14.1758 42.0382 13.9164 41.7432 13.9635C41.3015 14.034 40.6779 13.2495 40.8894 12.8555C41.0084 12.6339 41.1429 12.4484 41.293 12.2991ZM43.2184 19.2468C43.8129 19.5266 44.0605 20.241 43.7665 20.8286C43.4825 21.3966 42.7971 21.6341 42.2225 21.3639L42.1157 21.3137C41.5211 21.0341 41.2734 20.3196 41.5673 19.7319C41.8513 19.1638 42.5369 18.9262 43.1116 19.1966L43.2184 19.2468ZM46.5858 33.757C46.6256 33.757 46.6579 33.7896 46.6573 33.8294C46.6402 35.0016 46.2027 35.5891 45.3493 35.5891C44.5642 35.5891 44.1717 35.1969 44.1717 34.4112C44.1717 33.2823 44.7745 31.9816 45.9847 30.5089C45.9965 30.4945 46.0144 30.486 46.0331 30.486C46.0796 30.486 46.1097 30.5353 46.089 30.577C45.42 31.9242 45.0876 32.8977 45.0876 33.4953C45.0876 34.1044 45.3045 34.4112 45.7419 34.4112C46.158 34.4112 46.4151 34.212 46.514 33.8146C46.5223 33.7813 46.5516 33.757 46.5858 33.757ZM49.0131 5.75701C49.0131 6.15262 48.9818 6.56703 48.9195 7.00018C48.8789 7.28164 48.4897 7.21895 48.4897 6.93458C48.4897 5.51743 48.0982 4.38514 47.3169 3.53604C47.1564 3.3616 47.0619 3.13259 47.0816 2.89635C47.128 2.33957 47.7301 2.05582 48.0491 2.51452C48.2484 2.80121 48.4171 3.14071 48.5551 3.53271C48.8597 4.40575 49.0131 5.14762 49.0131 5.75701ZM54.083 18.3876C56.0396 17.5229 56.2351 14.8766 54.107 14.6585C53.2278 14.5684 52.3149 14.5234 51.3684 14.5234C51.0358 14.5234 50.7266 14.5312 50.441 14.5468C49.0112 14.6249 48.7734 15.7063 49.929 16.5517C50.5271 16.9888 51.0774 17.4203 51.5791 17.8459C52.3413 18.4922 53.1689 18.7915 54.083 18.3876ZM60.9353 1.8664C61.8431 1.54821 62.6794 2.25901 62.2942 3.14051C62.2786 3.17612 62.2628 3.21128 62.2468 3.24597C62.0669 3.63719 61.8373 3.25855 61.9254 2.83704C61.9809 2.57158 61.7038 2.56898 61.4465 2.65467C57.565 3.9474 53.9865 5.98013 50.7109 8.75286C50.4151 9.00327 49.9591 8.74219 50.0358 8.36228C50.0515 8.28459 50.0895 8.21347 50.146 8.15786C51.6187 6.70751 53.5752 5.33964 56.0135 4.0564C57.7746 3.1293 59.4148 2.39934 60.9353 1.8664ZM59.481 24.3364C59.6457 24.9979 59.4979 25.3849 59.0356 25.4983C58.9842 25.5109 58.9613 25.5167 58.9094 25.527C58.267 25.6544 57.476 25.5077 57.1068 26.0487C56.8205 26.4682 56.478 26.9444 56.0789 27.477C55.1178 28.6094 53.8545 29.3091 52.2843 29.5701C52.1129 29.6082 52.0144 29.3437 52.1659 29.2549C53.0967 28.7098 54.0956 28.0296 55.163 27.215C56.3835 26.2539 57.2114 25.2952 57.6491 24.3364C57.9968 23.6371 58.3033 23.2449 58.565 23.1582C59.0004 23.0712 59.305 23.4634 59.481 24.3364ZM60.5278 8.76636C60.5278 9.81308 60.1781 10.3368 59.481 10.3368C58.9183 10.3368 58.1748 10.4317 57.6565 10.6507C57.5329 10.7029 57.3996 10.729 57.2565 10.729C56.7332 10.729 56.4263 10.38 56.3406 9.68257C56.3406 9.24998 56.3406 8.83982 56.3406 8.45164C56.3406 8.31026 56.1578 8.25476 56.0794 8.37243C56.0624 8.39792 56.0455 8.42342 56.0285 8.44891C55.9652 8.54393 55.8172 8.49918 55.8172 8.38503C55.8172 8.37758 55.8179 8.37025 55.8194 8.36296C55.823 8.34573 55.827 8.3283 55.8315 8.31067C55.9912 7.68582 56.7955 8.06331 56.9413 8.69157C57.0337 9.09029 57.226 9.28972 57.5182 9.28972C57.954 9.28972 58.1725 9.02804 58.1725 8.50467C58.1725 8.26231 58.097 7.759 57.9479 6.99214C57.9246 6.87277 57.9546 6.74893 58.0306 6.65397C58.2188 6.41873 58.5692 6.46779 58.6381 6.76105C58.7145 7.08592 58.7774 7.4929 58.8267 7.98164C58.8267 8.59103 59.0436 8.89752 59.481 8.89752C59.7427 8.89752 59.8735 8.72154 59.8735 8.37416C59.8735 8.29006 59.7549 7.77294 59.5176 6.81996C59.4941 6.72549 59.5049 6.62536 59.5484 6.53828C59.7131 6.20902 60.1865 6.2521 60.2679 6.61111C60.4407 7.37305 60.5278 8.0915 60.5278 8.76636ZM58.7816 24.7117C59.0614 24.7933 59.0677 24.4676 58.8203 24.3133C58.7829 24.29 58.745 24.2704 58.7067 24.2546C58.4076 24.1314 58.471 24.6211 58.7816 24.7117ZM71.1265 30.0935C71.1265 30.9642 70.8648 31.4019 70.3414 31.4019C69.6558 31.4019 68.8971 31.5187 68.4712 32.0559C66.8906 34.0494 64.3737 35.0089 60.9203 34.9343H60.8626C60.8222 34.9343 60.7895 34.9015 60.7895 34.8611C60.7895 34.8274 60.8129 34.798 60.8456 34.7899C64.1265 33.9811 66.5178 32.898 68.0209 31.5394C68.4243 31.1748 68.117 30.5071 68.117 29.9633C68.117 29.7009 68.2478 29.3948 68.5095 29.0467C68.6266 28.8906 68.7346 28.7695 68.834 28.6832C68.9775 28.5587 69.1191 28.3448 69.073 28.1604L69.0588 28.1037C69.0428 28.0394 69.0616 27.9713 69.1085 27.9244C69.1439 27.889 69.1923 27.8677 69.2411 27.8786C69.4127 27.9171 69.6727 28.0728 70.0223 28.3471C70.0586 28.3756 70.0797 28.4194 70.0797 28.4656C70.0797 28.5028 70.0936 28.5389 70.1182 28.5668C70.7897 29.3278 71.1265 29.8366 71.1265 30.0935ZM72.5658 20.6729C72.5658 22.4471 72.3608 23.8115 71.9518 24.7685C71.9279 24.8244 71.8726 24.8598 71.8118 24.8598C71.7236 24.8598 71.6532 24.7862 71.6566 24.6981C71.7281 22.8275 71.595 20.8759 71.2573 18.8414L69.0329 4.0564C68.8886 3.34186 68.7457 2.77325 68.6032 2.35057C68.5469 2.18355 68.5422 2.00223 68.6015 1.83624C68.8149 1.23854 69.6388 1.18378 69.9295 1.74797L71.3579 4.52055C71.3778 4.55925 71.3882 4.60215 71.3882 4.64569C71.3882 4.89695 71.0776 5.01501 70.9107 4.8272L70.6849 4.57313C70.5204 4.38799 70.2171 4.4362 70.2109 4.6838C70.2104 4.70219 70.212 4.71941 70.2149 4.73758L72.435 18.7103C72.521 19.1457 72.5658 19.7999 72.5658 20.6729ZM69.6872 29.4393C69.6872 29.2633 69.5992 29.1772 69.4255 29.1772C69.2045 29.1772 69.0185 29.2296 68.8677 29.3342C68.7037 29.448 68.706 29.6863 68.8584 29.8151C68.9284 29.8742 69.006 29.9256 69.0913 29.9695C69.2525 30.0524 69.455 29.9166 69.5563 29.7664C69.642 29.6355 69.6872 29.525 69.6872 29.4393ZM187.058 24.5981C187.058 25.8186 186.774 26.8228 186.207 27.6075C185.639 28.3919 185.007 28.785 184.31 28.785C184.188 28.785 184.069 28.7778 183.954 28.7633C182.977 28.6407 180.323 28.785 179.338 28.785C178.305 28.785 176.033 28.58 175.063 28.9349C174.62 29.0969 174.126 29.1779 173.581 29.1779C172.97 29.1779 172.469 28.9368 172.076 28.4586C171.684 27.9781 171.487 27.4318 171.487 26.8231C171.487 26.4985 171.172 26.2671 170.862 26.3622C158.762 30.0703 146.409 31.9262 133.803 31.9262C127.608 31.9262 121.546 31.4025 115.615 30.3555C111.239 29.6822 107.721 28.8274 105.061 27.7913C104.068 27.4048 102.917 28.1075 102.868 29.1715C102.851 29.544 102.83 29.9167 102.805 30.2895C102.798 30.4004 102.705 30.4863 102.594 30.4863C102.552 30.4863 102.511 30.4739 102.477 30.4504C101.461 29.759 100.825 28.943 100.567 28.0003C100.479 27.3007 100.414 26.6464 100.371 26.0377C100.326 25.4264 99.7817 25.1212 98.7355 25.1212C97.7745 25.1212 96.1389 26.5163 93.8287 29.3087C91.5163 32.0989 89.7499 33.4957 88.5294 33.4957C87.83 33.4957 87.2209 33.1686 86.6975 32.5143C86.1741 31.8601 85.9124 30.9649 85.9124 29.8321C85.9124 29.5529 85.9397 29.2465 85.9943 28.913C86.0819 28.3772 85.5394 27.8695 84.9964 27.8695C84.1214 27.8695 79.7364 28.2927 78.8891 28.5115C78.5199 28.6069 78.1132 28.6545 77.6689 28.6545C76.6221 28.6545 75.8371 28.086 75.3137 26.9536C74.9643 26.0806 74.8331 25.077 74.9211 23.9443C74.9211 23.7686 75.0068 23.1592 75.1828 22.1125C75.2542 21.3876 74.5272 21.1875 74.3144 21.8841C74.193 22.2815 74.09 22.7063 74.0052 23.1586C73.8295 24.1179 73.6558 25.0764 73.4818 26.0377C73.1321 27.6078 72.5658 28.3922 71.7807 28.3922C71.1693 28.3922 70.646 27.8898 70.2106 26.8875C69.7729 25.884 69.5563 24.8143 69.5563 23.6819C69.5563 22.5131 69.6347 21.2264 69.7954 19.8199C69.8062 19.7255 69.9077 19.6707 69.9927 19.7132C70.0448 19.7392 70.0748 19.7954 70.0678 19.8532C69.9878 20.5181 69.9489 21.1834 69.9489 21.8495C69.9489 24.814 70.5583 26.2987 71.7807 26.2987C72.2161 26.2987 72.6087 25.6445 72.9584 24.3361C73.499 22.3999 73.8353 21.1852 73.9656 20.6935C73.9925 20.5919 74.0249 20.4924 74.0662 20.3958C74.3766 19.6702 74.7308 19.0648 75.129 18.5794C75.594 18.0125 76.3604 18.4257 76.3604 19.1589C76.3604 19.2082 76.3566 19.2581 76.3491 19.3068C76.007 21.5308 75.837 22.9026 75.837 23.4202C75.837 25.3374 76.5341 26.2987 77.9306 26.2987C78.8018 26.2987 79.5662 25.9491 80.2205 25.252C80.6648 24.7773 80.9583 24.243 81.1008 23.6487C81.239 23.0726 81.1492 22.4727 81.0445 21.8896L80.321 17.8589C80.298 17.7309 80.3089 17.5991 80.3527 17.4766C80.5734 16.8585 81.4222 16.8137 81.61 17.4426C81.6621 17.6172 81.7005 17.778 81.7252 17.9249C81.9869 19.407 82.2035 20.9343 82.3795 22.5043C82.9029 24.6838 83.8617 25.7754 85.2581 25.7754C86.672 25.7754 86.7495 23.9812 86.1648 22.694C86.037 22.4127 85.9093 22.1315 85.7815 21.8501C85.2372 20.4526 84.9004 19.3305 84.7725 18.4866C84.7425 18.2887 84.6946 18.0936 84.6158 17.9096L84.4456 17.5123C84.3787 17.3563 84.3677 17.1819 84.4143 17.0186C84.5893 16.4062 85.4055 16.2877 85.7475 16.825L86.6503 18.2436C86.6811 18.292 86.6975 18.3482 86.6975 18.4056C86.6975 18.6471 86.431 18.7856 86.2475 18.6286C86.1871 18.5768 86.1266 18.5228 86.0661 18.4663C85.9891 18.3944 85.8035 18.4601 85.8548 18.5522C85.8848 18.606 85.9286 18.6165 85.9532 18.673C87.1465 21.4129 87.7443 23.3015 87.7443 24.3368C87.7443 24.8669 87.7044 25.3374 87.6248 25.7482C87.3767 27.0284 86.3049 28.1359 86.3049 29.4399C86.3049 30.66 86.9144 31.272 88.1368 31.272C89.2693 31.272 90.9707 29.853 93.2399 27.0197C95.5069 24.184 97.2962 22.7673 98.6047 22.7673C98.9262 22.7673 99.3438 22.9101 99.8564 23.1954C100.165 23.367 100.563 23.2491 100.699 22.9233C100.869 22.5151 101.445 22.4398 101.775 22.7337C103.415 24.1915 106.807 25.5538 111.951 26.8224C118.841 28.3922 126.737 29.1772 135.635 29.1772C141.653 29.1772 148.282 28.6539 155.524 27.6072C161.421 26.7048 166.78 25.6115 171.601 24.3273C171.922 24.2416 172.272 24.6575 172.272 24.9903C172.272 25.514 172.446 25.9922 172.796 26.4289C173.144 26.8646 173.536 27.0831 173.974 27.0831C174.845 27.0831 175.761 26.6458 176.721 25.7747L178.33 24.1672C178.381 24.1162 178.464 24.1162 178.515 24.1673C178.539 24.1918 178.553 24.2251 178.553 24.2598C178.553 24.4155 178.553 24.5716 178.553 24.7293C178.553 25.9491 178.989 26.5611 179.862 26.5611C180.297 26.5611 180.778 26.1689 181.3 25.3835C181.891 24.3692 182.32 23.7641 182.584 23.5689C182.6 23.5571 182.619 23.5514 182.639 23.5514C182.695 23.5514 182.74 23.5964 182.74 23.6519C182.74 23.7922 182.74 23.933 182.74 24.0751C182.74 24.7722 182.978 25.4041 183.459 25.9723C183.938 26.5382 184.396 26.8228 184.833 26.8228C185.704 26.8228 186.142 26.4734 186.142 25.7757C186.142 24.9913 185.488 23.4212 184.179 21.0661C183.214 19.3177 182.562 18.0492 182.222 17.2595C182.008 16.7602 181.832 16.2389 181.562 15.767C181.435 15.5444 181.354 15.38 181.32 15.2738C181.3 15.2118 181.307 15.1461 181.32 15.0822C181.477 14.2967 182.453 14.0139 183.006 14.5939L184.235 15.8848C184.283 15.935 184.31 16.0016 184.31 16.0708C184.31 16.2661 184.109 16.3966 183.931 16.3173L183.332 16.0513C183.238 16.0094 183.132 16.0783 183.132 16.1813C183.132 16.2093 183.141 16.2368 183.156 16.2601C183.845 17.2946 184.534 18.3294 185.225 19.3645C186.447 21.5436 187.058 23.2897 187.058 24.5981ZM70.4723 30.486C70.5688 30.486 70.6193 30.3673 70.5548 30.2954C70.4665 30.197 70.365 30.079 70.2506 29.9411C70.1142 29.777 69.8505 29.8159 69.7712 30.0141C69.7223 30.1366 69.7648 30.2791 69.8827 30.3381C70.0792 30.4364 70.2757 30.486 70.4723 30.486ZM84.5703 0.453767C85.4541 0.180181 86.1942 0.872916 85.7815 1.70093C85.6683 1.92757 85.4058 1.78954 85.4596 1.54193C85.4731 1.4796 85.4843 1.41955 85.4933 1.36178C85.5173 1.20725 85.3671 1.09605 85.2186 1.14509C80.4072 2.73411 76.2601 4.98425 72.7773 7.89807C72.3876 8.22407 71.8434 7.96885 71.9924 7.48314C72.0207 7.39087 72.0788 7.29288 72.1498 7.22752C73.6332 5.86246 75.8651 4.41147 78.8466 2.8785C80.9676 1.78649 82.8755 0.978417 84.5703 0.453767ZM80.8093 30.6168C80.8093 30.8248 80.7691 31.0328 80.6893 31.241C80.5481 31.6093 80.0261 31.5327 79.6317 31.5327C79.1943 31.5327 78.8466 32.0986 78.5849 33.2336C78.557 33.5094 78.5249 33.7854 78.4884 34.0616C78.428 34.5198 77.6881 34.5981 77.4761 34.1874C77.4591 34.1545 77.4418 34.1212 77.4243 34.0876C77.2498 33.7537 76.6063 33.8879 76.2296 33.8879C75.4445 33.8879 75.052 33.4502 75.052 32.5794C75.052 31.7064 75.3997 31.271 76.0987 31.271C77.0584 31.271 78.636 31.3912 79.002 30.504C79.3308 29.7069 79.7151 29.3084 80.1551 29.3084C80.5905 29.3084 80.8093 29.7438 80.8093 30.6168ZM81.071 11.2523C81.071 12.2991 80.6784 12.8224 79.8934 12.8224C79.3379 12.8224 78.6375 12.9352 78.1199 13.1366C77.9857 13.1888 77.8354 13.215 77.6689 13.215C77.1455 13.215 76.8387 12.8653 76.753 12.1682C76.753 11.7354 76.753 11.3251 76.753 10.9367C76.753 10.7953 76.5701 10.7403 76.4917 10.858C76.4132 10.976 76.2296 10.92 76.2296 10.7783V10.7637C76.2296 10.7408 76.2348 10.7183 76.2453 10.6981C76.2603 10.6692 76.2767 10.6391 76.2946 10.608C76.5775 10.1136 77.3009 10.4209 77.3832 10.9845C77.4602 11.5119 77.6429 11.7757 77.9306 11.7757C78.3663 11.7757 78.5849 11.4689 78.5849 10.8598C78.5849 10.6991 78.5115 10.2485 78.3664 9.50809C78.3392 9.36971 78.374 9.22615 78.4621 9.11605C78.6569 8.87253 79.0184 8.89114 79.1013 9.19178C79.1932 9.52481 79.2391 9.95007 79.2391 10.4673C79.3251 11.0764 79.5868 11.3832 80.0242 11.3832C80.2859 11.3832 80.4167 11.2079 80.4167 10.8598C80.4167 10.7751 80.2955 10.2471 80.0529 9.27378C80.0343 9.19909 80.0387 9.12028 80.0657 9.0482C80.1883 8.72124 80.6395 8.72363 80.7361 9.05921C80.9591 9.83415 81.071 10.5651 81.071 11.2523ZM84.3422 9.81308C84.3422 10.2089 84.311 10.6234 84.2485 11.0566C84.208 11.338 83.8188 11.2753 83.8188 10.991C83.8188 9.56041 83.42 8.41864 82.6242 7.56841C82.4761 7.41017 82.3892 7.20101 82.4058 6.9849C82.4496 6.41594 83.0817 6.18177 83.3728 6.67262C83.5345 6.94543 83.6832 7.25093 83.8188 7.58911C84.1662 8.45953 84.3422 9.20173 84.3422 9.81308ZM91.408 20.6729C91.408 22.4423 91.2438 23.8041 90.9193 24.7607C90.8991 24.8204 90.8426 24.8598 90.7795 24.8598C90.6942 24.8598 90.6262 24.7886 90.6294 24.7034C90.7014 22.8312 90.5684 20.8778 90.2304 18.8414L88.006 4.0564C87.8616 3.34186 87.7188 2.77325 87.5762 2.35057C87.5199 2.18355 87.5153 2.00223 87.5745 1.83624C87.788 1.23854 88.6119 1.18378 88.9025 1.74798L90.3309 4.52055C90.3508 4.55925 90.3612 4.60215 90.3612 4.64569C90.3612 4.89695 90.0507 5.01501 89.8838 4.82719L89.658 4.57313C89.4934 4.38799 89.1901 4.4362 89.1839 4.6838C89.1835 4.70219 89.1851 4.71941 89.1879 4.73758L91.2841 17.9306C91.3666 18.4496 91.408 18.9741 91.408 19.4996C91.408 19.8328 91.408 20.2239 91.408 20.6729ZM99.5096 29.077C99.6877 29.3796 99.8239 29.8777 99.7979 30.2279C99.7687 30.6221 99.6302 30.87 99.3823 30.972C99.303 31.0047 99.2686 31.0139 99.1834 31.0047C98.4738 30.9279 97.661 30.9865 97.2638 31.5795C97.0093 31.9595 96.7147 32.3799 96.3803 32.8408C95.3335 33.9732 94.025 34.7151 92.4548 35.0651C92.2688 35.0883 92.1827 34.8062 92.3463 34.7147C93.2471 34.2106 94.243 33.5417 95.3335 32.7096C96.642 31.6626 97.5128 30.6587 97.9505 29.7C97.9936 29.6132 98.0355 29.5311 98.076 29.4537C98.4278 28.7821 99.125 28.4235 99.5096 29.077ZM98.9973 6.28037C98.9973 6.42897 98.9736 6.58549 98.9262 6.74979C98.8165 7.1306 98.3468 7.06575 97.9505 7.06575C97.5128 7.06575 97.1657 7.6336 96.9037 8.76636C96.8613 8.99764 96.8216 9.22389 96.7844 9.44508C96.7145 9.86138 96.014 10.1812 95.8119 9.81058C95.6447 9.50396 94.9144 9.3646 94.5683 9.41101C94.5208 9.41738 94.4708 9.42056 94.4182 9.42056C93.7188 9.42056 93.3714 9.02837 93.3714 8.24299C93.3714 7.28393 93.676 6.80374 94.2874 6.80374C95.2327 6.80374 96.9003 6.89222 97.2638 6.01958C97.591 5.23394 97.951 4.84112 98.3437 4.84112C98.7784 4.84112 98.9973 5.32164 98.9973 6.28037ZM98.4805 12.6984C99.0277 13.1234 99.119 13.9018 98.7469 14.4861C98.5699 14.7641 98.3027 14.9733 97.9885 15.0727C97.6041 15.1943 97.1984 15.3165 96.7725 15.4393C96.5174 15.5087 96.2963 15.5874 96.1092 15.6753C95.3325 16.0401 95.4529 17.0352 95.6429 17.872C95.8725 18.8832 95.9877 19.6424 95.9877 20.1499C95.9877 20.6489 95.6386 20.6544 95.544 20.1645C95.4828 19.8471 95.4126 19.5151 95.3335 19.1686C94.9845 17.6413 94.8098 16.66 94.8098 16.2246C94.8098 15.3516 95.0921 14.7854 95.6606 14.5237C95.8702 14.4268 96.0769 14.3359 96.2808 14.2509C96.6226 14.1084 96.6198 13.6078 96.2494 13.6078C96.3043 13.6078 96.2184 13.6779 95.9919 13.819C95.7892 13.9453 95.5379 13.7649 95.5845 13.5308C95.5915 13.4952 95.6055 13.4615 95.6254 13.4312C95.7916 13.1775 95.9784 12.8656 96.1843 12.4957C96.4009 12.1031 96.642 11.9069 96.9037 11.9069C97.2751 11.9066 97.8007 12.1705 98.4805 12.6984ZM98.9667 30.0605C99.2622 30.1583 99.3456 29.7927 99.07 29.6479C99.0339 29.629 98.9974 29.6135 98.9605 29.6014C98.663 29.5042 98.6696 29.9621 98.9667 30.0605ZM102.266 26.8364C102.269 26.6641 102.262 26.5645 102.128 26.456C101.756 26.154 101.202 26.2918 101.364 26.7432C101.381 26.7909 101.399 26.8391 101.417 26.8878C101.634 27.4541 101.875 27.7383 102.137 27.7383C102.213 27.738 102.257 27.4376 102.266 26.8364ZM169.525 32.0561C168.968 32.0561 168.149 31.8738 167.686 32.1811C167.416 32.3596 167.157 32.4489 166.908 32.4489C166.732 32.4489 166.45 32.3181 166.057 32.0567C165.665 31.7944 165.423 31.6636 165.337 31.6636C164.9 31.6636 164.072 31.9259 162.851 32.4486C161.281 33.1457 160.015 33.669 159.056 34.019C157.159 34.6205 155.093 34.9272 152.857 34.9344C152.807 34.9346 152.761 34.9065 152.739 34.862C152.696 34.775 152.759 34.6728 152.856 34.6713C154.704 34.6435 156.553 34.2512 158.402 33.495C159.449 33.1453 160.931 32.4483 162.852 31.4019C164.246 30.6171 165.25 30.224 165.861 30.224C166.035 30.224 166.297 30.3977 166.646 30.7477C166.994 31.0954 167.3 31.2714 167.562 31.2714C167.904 31.2714 168.288 30.8489 168.717 30.0083C168.732 29.9788 168.755 29.9533 168.782 29.9348C168.919 29.8433 169.104 29.957 169.119 30.1208C169.159 30.5386 169.381 30.7477 169.786 30.7477C170.043 30.7477 170.298 30.3299 170.553 29.4986C170.565 29.4609 170.591 29.4293 170.627 29.4117C170.722 29.3644 170.833 29.434 170.831 29.54C170.795 31.2173 170.358 32.0561 169.525 32.0561ZM179.862 8.24299C179.862 8.40678 179.823 8.59046 179.745 8.79366C179.595 9.18629 179.104 9.02804 178.683 9.02804C178.246 9.02804 177.899 9.63678 177.637 10.8598C177.602 11.1648 177.562 11.4762 177.515 11.7943C177.445 12.2691 176.783 12.3531 176.565 11.9256C176.531 11.8601 176.497 11.7933 176.462 11.7251C176.287 11.3866 175.532 11.3832 175.151 11.3832C174.452 11.3832 174.104 10.991 174.104 10.2056C174.104 9.24458 174.41 8.76636 175.02 8.76636C175.966 8.76636 177.633 8.85483 177.997 7.9822C178.324 7.19656 178.684 6.80374 179.077 6.80374C179.6 6.80374 179.862 7.28425 179.862 8.24299ZM178.815 18.3178C178.815 19.8879 178.334 20.6729 177.376 20.6729C176.502 20.6729 176.067 20.1924 176.067 19.2336C176.067 18.6226 176.241 17.8804 176.591 17.0093C176.701 16.7897 176.799 16.5893 176.886 16.408C176.969 16.2345 177.566 16.353 177.526 16.5413C177.511 16.6158 177.553 16.6442 177.617 16.685C178.414 17.1895 178.815 17.733 178.815 18.3178ZM177.535 19.3583C178.097 19.3138 178.157 18.6245 177.68 18.3262C177.669 18.3193 177.658 18.3124 177.646 18.3055C177.21 18.0395 176.46 18.1995 176.46 18.7103C176.46 19.1457 176.764 19.3645 177.376 19.3645C177.43 19.3645 177.483 19.3624 177.535 19.3583ZM184.03 30.9071C184.557 31.1861 184.78 31.8242 184.541 32.3705C184.275 32.9775 183.55 33.2306 182.964 32.9205L182.759 32.8116C182.232 32.5326 182.009 31.8944 182.248 31.3483C182.514 30.7413 183.239 30.4883 183.825 30.7983L184.03 30.9071Z" fill="#101010"/></svg>