<svg viewBox="0 0 17 16" fill="none" xmlns="http://www.w3.org/2000/svg">
    <path
        d="M15.7648 15.1504L11.7661 11.2017M13.4625 7.01364C13.4625 7.78361 13.3089 8.54605 13.0105 9.25741C12.7122 9.96877 12.2748 10.6151 11.7234 11.1596C11.1721 11.704 10.5175 12.1359 9.79716 12.4306C9.07679 12.7252 8.30469 12.8769 7.52496 12.8769C6.74523 12.8769 5.97313 12.7252 5.25275 12.4306C4.53238 12.1359 3.87783 11.704 3.32647 11.1596C2.77512 10.6151 2.33776 9.96877 2.03937 9.25741C1.74098 8.54605 1.5874 7.78361 1.5874 7.01364C1.5874 5.45861 2.21296 3.96727 3.32647 2.8677C4.43998 1.76812 5.95022 1.15039 7.52496 1.15039C9.0997 1.15039 10.6099 1.76812 11.7234 2.8677C12.837 3.96727 13.4625 5.45861 13.4625 7.01364Z"
        stroke="#028478" stroke-width="1.5" stroke-linecap="round" stroke-linejoin="round" />
</svg>